<svg xmlns="http://www.w3.org/2000/svg" viewBox="0 0 1000 1000">
  <rect width="1000" height="1000" rx="190" fill="#2c1f0e"/>
  <g transform="translate(267.61 800.50) scale(0.90418 -0.90418)">
    <path d="M255 428C250 433 245 417 243 410C234 385 229 360 220 338C216 328 213 310 208 300C191 269 187 236 178 202C173 182 178 177 199 175C234 173 269 174 300 190C310 196 321 205 328 215C340 233 350 252 360 271C375 293 379 318 392 340C395 345 399 351 402 357C408 372 413 386 417 401C418 406 422 412 419 427C415 446 399 450 391 461C374 484 357 499 346 523C330 559 350 599 376 643C379 649 386 654 392 657C405 664 412 662 419 650C428 633 443 622 455 609C471 594 485 577 493 559C500 545 498 526 498 510C499 485 489 464 473 445C459 429 449 412 448 389C448 379 442 369 440 360C433 324 427 298 426 264C425 238 420 213 418 187C417 177 418 167 416 158C412 116 401 76 376 44C361 26 347 5 319 3C314 2 308 2 303 2C287 2 272 2 257 1C255 1 253 0 251 1C223 8 196 1 168 1C145 1 122 4 98 1C81 0 70 11 70 29C70 47 72 65 71 83C71 97 70 112 69 126C69 141 69 155 68 170C64 208 56 247 53 286C50 332 41 377 57 418C62 430 80 450 68 455C59 459 48 468 38 483C23 506 12 527 17 563C20 588 21 613 20 637C20 642 21 648 24 653C31 666 39 668 50 657C60 647 72 634 84 628C107 616 147 595 159 572C170 550 177 526 171 501C168 492 167 481 165 471L162 455C153 428 153 425 126 437C104 446 88 440 84 417C82 400 81 380 82 362C88 306 99 249 118 196C120 193 120 189 122 186C124 184 128 180 130 180C134 180 138 182 139 185C152 219 164 253 175 287C178 295 180 303 183 311C184 315 187 322 188 326C198 359 203 388 215 419C218 426 219 432 222 439C227 450 223 460 216 470C191 501 182 537 184 574C185 579 186 584 188 588C196 606 204 622 213 640C214 645 220 649 224 653C241 667 248 665 259 645C271 626 284 609 297 591C299 587 302 583 305 580C325 561 327 533 332 509C336 488 323 474 320 455C319 449 314 443 312 437C301 401 287 398 255 428Z" fill="#faf6ee"/>
  </g>
</svg>
